<?xml version="1.0" standalone="no"?>
<!DOCTYPE svg PUBLIC "-//W3C//DTD SVG 20010904//EN"
 "http://www.w3.org/TR/2001/REC-SVG-20010904/DTD/svg10.dtd">
<svg version="1.0" xmlns="http://www.w3.org/2000/svg"
 width="1610.000000pt" height="1610.000000pt" viewBox="0 0 1610.000000 1610.000000"
 preserveAspectRatio="xMidYMid meet">
<metadata>
Created by potrace 1.14, written by Peter Selinger 2001-2017
</metadata>
<g transform="translate(0.000000,1610.000000) scale(0.100000,-0.100000)"
fill="#000000" stroke="none">
<path d="M9590 10582 c0 -4 -15 -8 -32 -7 -27 0 -125 -17 -163 -29 -28 -9 -72
-27 -90 -38 -11 -6 -33 -18 -50 -27 -36 -18 -177 -158 -199 -198 -42 -77 -74
-148 -70 -155 3 -5 0 -8 -6 -8 -6 0 -8 -4 -5 -10 3 -5 3 -16 -2 -22 -23 -38
-35 -252 -19 -343 4 -22 8 -47 10 -55 1 -9 5 -21 10 -28 4 -6 5 -16 1 -21 -3
-5 -1 -12 3 -15 5 -3 15 -26 22 -51 7 -25 15 -45 19 -45 3 0 15 -19 26 -41 10
-23 25 -44 32 -46 7 -3 13 -9 13 -14 0 -16 17 -34 102 -111 40 -36 166 -109
198 -115 8 -1 49 -9 90 -18 81 -18 214 -15 292 5 69 18 132 42 151 58 9 8 17
12 17 8 0 -13 115 82 158 130 59 68 62 72 62 83 0 5 3 11 8 13 12 5 48 80 71
147 27 79 33 128 33 261 -1 216 -80 399 -226 525 -26 22 -52 45 -59 51 -16 14
-146 78 -165 80 -8 2 -37 8 -66 15 -28 7 -62 13 -76 13 -14 1 -31 5 -37 9 -8
5 -13 4 -13 -3 0 -8 -6 -8 -20 0 -11 6 -20 7 -20 2z"/>
<path d="M12955 10533 c2 -10 4 -18 6 -18 1 0 3 -11 4 -25 1 -14 5 -33 9 -42
4 -9 5 -22 1 -28 -3 -5 -2 -10 2 -10 5 0 10 -12 11 -27 1 -16 5 -39 8 -53 3
-14 7 -39 8 -55 1 -17 4 -35 8 -40 3 -6 5 -27 4 -47 -1 -21 1 -38 4 -38 3 0 6
-10 7 -22 5 -112 10 -165 17 -176 4 -7 2 -12 -5 -12 -8 0 -8 -4 -2 -12 6 -8 9
-106 7 -243 -3 -261 -9 -356 -29 -500 -3 -16 -7 -50 -10 -75 -2 -25 -9 -67
-15 -95 -12 -59 -21 -102 -26 -130 -2 -11 -13 -54 -24 -95 -11 -41 -23 -86
-26 -100 -2 -14 -11 -42 -19 -62 -8 -21 -13 -38 -11 -38 3 0 -1 -12 -9 -27 -8
-15 -12 -30 -9 -35 3 -4 0 -8 -6 -8 -6 0 -9 -4 -6 -8 3 -5 -2 -22 -10 -38 -9
-16 -15 -30 -15 -31 1 -8 -68 -182 -82 -207 -6 -12 -12 -23 -12 -26 -1 -6 -86
-175 -106 -210 -8 -14 -18 -28 -24 -32 -5 -4 -7 -8 -3 -8 6 0 -128 -218 -141
-230 -3 -3 -22 -27 -40 -55 -36 -51 -172 -223 -226 -284 -50 -58 -309 -313
-365 -361 -50 -42 -110 -89 -190 -150 -18 -14 -44 -35 -59 -47 -14 -13 -29
-23 -33 -23 -4 0 -35 -20 -70 -44 -98 -68 -292 -176 -423 -235 -165 -74 -186
-83 -199 -85 -6 -1 -15 -4 -21 -7 -9 -6 -140 -51 -157 -55 -5 -1 -10 -3 -13
-4 -3 -1 -8 -3 -12 -4 -5 -2 -28 -9 -53 -16 -25 -8 -53 -14 -62 -13 -10 0 -18
-3 -18 -7 0 -4 -6 -7 -12 -8 -33 -2 -65 -9 -74 -15 -11 -6 -31 -10 -109 -23
-22 -3 -69 -12 -105 -18 -36 -7 -75 -12 -87 -11 -13 1 -23 -1 -23 -5 0 -4 -15
-7 -32 -7 -18 -1 -55 -4 -83 -7 -182 -23 -668 -24 -703 -2 -7 4 -12 2 -12 -4
0 -6 -5 -8 -12 -3 -7 4 -30 8 -50 8 -20 0 -40 4 -44 7 -3 4 -11 4 -18 2 -7 -3
-25 0 -40 6 -19 7 -25 7 -20 -1 4 -8 1 -8 -12 -1 -11 6 -37 11 -59 13 -22 1
-44 5 -50 8 -5 3 -17 6 -27 6 -15 1 -16 -21 -15 -277 1 -180 -2 -278 -8 -278
-5 0 -4 -4 3 -9 17 -11 17 -21 0 -32 -7 -5 -8 -9 -2 -9 6 0 11 -7 11 -15 0 -8
-5 -15 -11 -15 -6 0 -5 -4 2 -9 17 -11 17 -21 0 -32 -7 -5 -8 -9 -2 -9 6 0 11
-7 11 -15 0 -8 -5 -15 -11 -15 -7 0 -7 -3 -1 -8 13 -9 14 -65 0 -74 -7 -5 -7
-8 1 -8 14 0 14 -30 0 -30 -6 0 -5 -4 2 -9 17 -11 17 -21 0 -32 -7 -5 -8 -9
-2 -9 6 0 11 -7 11 -15 0 -8 -5 -15 -11 -15 -6 0 -5 -4 2 -9 17 -11 17 -21 0
-32 -7 -5 -8 -9 -2 -9 14 0 14 -30 0 -30 -6 0 -5 -4 2 -9 17 -11 17 -21 0 -32
-7 -5 -8 -9 -3 -9 6 0 10 -32 10 -75 0 -43 -4 -75 -10 -75 -5 0 -4 -4 3 -9 8
-4 14 -12 14 -16 0 -4 -6 -12 -14 -16 -7 -5 -8 -9 -2 -9 6 0 11 -7 11 -15 0
-8 -5 -15 -11 -15 -6 0 -5 -4 2 -9 8 -4 14 -12 14 -16 0 -4 -6 -12 -14 -16 -7
-5 -8 -9 -2 -9 6 0 11 -7 11 -15 0 -8 -5 -15 -11 -15 -7 0 -7 -3 -1 -8 13 -9
14 -65 0 -74 -7 -5 -7 -8 1 -8 6 0 11 -7 11 -15 0 -8 -5 -15 -11 -15 -6 0 -5
-4 2 -9 17 -11 17 -21 0 -32 -7 -5 -8 -9 -2 -9 6 0 11 -7 11 -15 0 -8 -5 -15
-11 -15 -6 0 -5 -4 2 -9 17 -11 17 -21 0 -32 -7 -5 -8 -9 -2 -9 14 0 14 -30 0
-30 -6 0 -5 -4 2 -9 8 -4 14 -12 14 -16 0 -4 -6 -12 -14 -16 -7 -5 -8 -9 -3
-9 7 0 9 -124 8 -355 -1 -324 0 -355 15 -356 27 -1 3297 -1 3302 1 3 0 68 3
145 5 77 3 172 7 210 10 174 12 200 14 200 15 0 3 80 12 117 13 21 1 38 4 38
7 0 3 8 6 18 6 9 0 40 4 67 8 28 4 61 10 75 12 30 4 65 12 65 14 0 1 15 3 33
5 19 2 41 6 50 10 8 3 31 8 51 11 20 3 42 11 50 17 12 10 13 9 6 -2 -6 -10 -4
-12 5 -6 13 8 69 24 107 30 12 2 27 6 33 10 5 3 22 9 37 11 15 3 33 10 40 16
7 6 13 8 13 5 0 -3 21 1 48 9 26 8 52 16 57 18 6 2 17 6 25 9 8 3 48 17 89 32
41 14 79 29 85 33 6 3 16 7 21 7 6 0 37 13 69 28 33 15 70 30 83 33 13 4 23
10 23 15 0 5 9 9 20 9 11 0 20 4 20 8 0 5 18 15 40 22 22 7 40 18 40 23 0 6 3
7 7 4 3 -4 11 -3 17 2 6 5 34 21 61 37 28 15 64 36 80 46 17 10 37 21 45 25
19 9 223 145 230 153 3 4 26 21 53 39 26 17 47 36 47 41 0 6 6 10 14 10 8 0
16 3 18 8 2 4 32 32 68 62 82 69 229 215 300 300 30 36 57 67 60 70 5 4 73 92
97 125 38 51 73 105 73 112 0 5 11 20 25 33 13 12 22 27 19 31 -3 5 -1 9 4 9
5 0 12 8 15 18 4 9 22 44 42 77 19 33 44 78 55 100 11 22 25 47 30 55 16 26
100 211 100 221 0 5 4 17 10 27 20 37 87 213 95 252 2 8 4 16 5 18 2 1 4 7 5
12 1 6 3 11 5 13 1 1 3 9 5 17 2 8 17 67 33 130 32 121 58 242 66 300 2 19 7
51 10 70 15 102 26 228 30 360 2 52 5 100 6 105 1 6 1 12 0 15 -7 16 -5 97 3
108 5 7 6 12 0 12 -5 0 -9 21 -10 48 -2 62 -13 213 -18 243 -2 13 -6 51 -10
84 -4 32 -8 62 -10 65 -1 3 -6 28 -9 55 -4 28 -9 57 -11 65 -2 8 -6 26 -9 40
-2 14 -12 57 -21 95 -22 93 -20 84 -34 135 -7 25 -15 52 -16 60 -5 21 -70 206
-90 255 -20 49 -35 82 -71 160 -15 33 -28 66 -30 72 -1 7 -12 24 -23 39 -12
15 -21 35 -21 45 0 11 -5 19 -11 19 -5 0 -8 4 -5 9 4 5 3 11 -2 13 -11 4 -67
101 -64 111 1 4 -3 7 -9 7 -5 0 -8 4 -5 9 4 5 2 11 -2 13 -5 1 -37 46 -72 98
-64 96 -124 177 -191 260 -35 44 -93 110 -144 166 -27 30 -55 60 -61 67 -34
38 -201 191 -269 245 -44 35 -90 72 -102 83 -13 10 -23 16 -23 11 0 -4 -5 1
-11 11 -5 9 -16 17 -24 17 -7 0 -15 4 -17 8 -3 8 -127 92 -135 92 -3 0 -17 9
-31 19 -47 33 -266 150 -312 167 -3 1 -15 5 -27 9 -13 4 -23 11 -23 16 0 5 -3
8 -7 8 -5 -1 -11 0 -15 1 -5 1 -11 3 -15 5 -5 1 -21 8 -38 15 -16 7 -39 15
-50 17 -10 2 -23 9 -27 16 -4 6 -8 8 -8 4 0 -4 -9 -3 -21 3 -11 6 -28 13 -37
15 -9 2 -54 17 -99 33 -46 17 -83 27 -83 25 0 -3 -6 0 -13 6 -8 6 -17 8 -20 4
-4 -3 -12 -1 -19 4 -11 9 -197 56 -303 78 -16 3 -40 8 -52 10 -24 5 -46 9
-103 19 -19 3 -48 8 -65 11 -16 3 -49 8 -72 10 -35 4 -41 3 -38 -12z"/>
</g>
</svg>
